<svg id="Layer_1" data-name="Layer 1" xmlns="http://www.w3.org/2000/svg" viewBox="0 0 149.59 142.87"><defs><style>.cls-1{fill:#ff4f2a;}.cls-2,.cls-4{fill:silver;}.cls-3{fill:#909090;}.cls-4{font-size:34.54px;stroke:#909090;stroke-miterlimit:10;stroke-width:5px;font-family:BookAntiqua, Book Antiqua;}</style></defs><title>silver-medal</title><polyline class="cls-1" points="83.69 94.18 121.61 139.38 125.88 114.91 149.59 119.82 109.73 72.33"/><polyline class="cls-1" points="31.85 72.33 0 121.99 24.63 118.78 27 142.87 60.47 90.68"/><path class="cls-2" d="M103,114.5A47.5,47.5,0,1,1,150.5,67,47.55,47.55,0,0,1,103,114.5Z" transform="translate(-32.86 -19)"/><path class="cls-3" d="M103,20A47,47,0,1,1,56,67a47.05,47.05,0,0,1,47-47m0-1a48,48,0,1,0,48,48,48,48,0,0,0-48-48Z" transform="translate(-32.86 -19)"/><path class="cls-2" d="M103,100.5A33.5,33.5,0,1,1,136.5,67,33.54,33.54,0,0,1,103,100.5Z" transform="translate(-32.86 -19)"/><path class="cls-3" d="M103,36A31,31,0,1,1,72,67a31,31,0,0,1,31-31m0-5a36,36,0,1,0,36,36,36,36,0,0,0-36-36Z" transform="translate(-32.86 -19)"/><text class="cls-4" transform="translate(61.14 59.2) scale(1.02 1)">2</text></svg>